<mxfile host="d3d8411a-cc41-4b61-83b8-6b0be4705947" modified="2020-09-01T18:40:47.159Z" agent="5.0 (Macintosh; Intel Mac OS X 10_15_6) AppleWebKit/537.36 (KHTML, like Gecko) Code/1.48.2 Chrome/78.0.3904.130 Electron/7.3.2 Safari/537.36" etag="Uf_oOu0rZltDsyofZ_oC" version="13.6.5">
    <diagram id="TgZHtt84LtUgyle7RrUV" name="Server">
        <mxGraphModel dx="888" dy="746" grid="1" gridSize="10" guides="1" tooltips="1" connect="1" arrows="1" fold="1" page="1" pageScale="1" pageWidth="850" pageHeight="1100" math="0" shadow="0">
            <root>
                <mxCell id="0"/>
                <mxCell id="1" parent="0"/>
                <mxCell id="Rp-ab2z_M1Jg2SWGDdXT-1" value="" style="rounded=0;whiteSpace=wrap;html=1;fillColor=#fff2cc;strokeColor=#d6b656;" parent="1" vertex="1">
                    <mxGeometry x="10" y="210" width="700" height="300" as="geometry"/>
                </mxCell>
                <mxCell id="Rp-ab2z_M1Jg2SWGDdXT-39" style="edgeStyle=orthogonalEdgeStyle;rounded=0;orthogonalLoop=1;jettySize=auto;html=1;" parent="1" source="Rp-ab2z_M1Jg2SWGDdXT-2" target="Rp-ab2z_M1Jg2SWGDdXT-32" edge="1">
                    <mxGeometry relative="1" as="geometry"/>
                </mxCell>
                <mxCell id="Rp-ab2z_M1Jg2SWGDdXT-2" value="&lt;div&gt;DataStore&lt;/div&gt;" style="rounded=1;whiteSpace=wrap;html=1;fillColor=#e1d5e7;strokeColor=#9673a6;" parent="1" vertex="1">
                    <mxGeometry x="40" y="330" width="100" height="30" as="geometry"/>
                </mxCell>
                <mxCell id="Rp-ab2z_M1Jg2SWGDdXT-22" value="" style="edgeStyle=orthogonalEdgeStyle;rounded=0;orthogonalLoop=1;jettySize=auto;html=1;" parent="1" source="Rp-ab2z_M1Jg2SWGDdXT-3" target="Rp-ab2z_M1Jg2SWGDdXT-19" edge="1">
                    <mxGeometry relative="1" as="geometry"/>
                </mxCell>
                <mxCell id="Rp-ab2z_M1Jg2SWGDdXT-3" value="&lt;div&gt;KeyManager&lt;/div&gt;" style="rounded=1;whiteSpace=wrap;html=1;fillColor=#e1d5e7;strokeColor=#9673a6;" parent="1" vertex="1">
                    <mxGeometry x="170" y="330" width="100" height="30" as="geometry"/>
                </mxCell>
                <mxCell id="Rp-ab2z_M1Jg2SWGDdXT-31" style="edgeStyle=orthogonalEdgeStyle;rounded=0;orthogonalLoop=1;jettySize=auto;html=1;" parent="1" source="Rp-ab2z_M1Jg2SWGDdXT-4" target="Rp-ab2z_M1Jg2SWGDdXT-30" edge="1">
                    <mxGeometry relative="1" as="geometry"/>
                </mxCell>
                <mxCell id="Rp-ab2z_M1Jg2SWGDdXT-4" value="UpstreamAuthority" style="rounded=1;whiteSpace=wrap;html=1;fillColor=#e1d5e7;strokeColor=#9673a6;" parent="1" vertex="1">
                    <mxGeometry x="300" y="330" width="120" height="30" as="geometry"/>
                </mxCell>
                <mxCell id="Rp-ab2z_M1Jg2SWGDdXT-17" style="edgeStyle=orthogonalEdgeStyle;rounded=0;orthogonalLoop=1;jettySize=auto;html=1;exitX=0.5;exitY=1;exitDx=0;exitDy=0;" parent="1" source="Rp-ab2z_M1Jg2SWGDdXT-5" target="Rp-ab2z_M1Jg2SWGDdXT-8" edge="1">
                    <mxGeometry relative="1" as="geometry"/>
                </mxCell>
                <mxCell id="Rp-ab2z_M1Jg2SWGDdXT-18" style="edgeStyle=orthogonalEdgeStyle;rounded=0;orthogonalLoop=1;jettySize=auto;html=1;" parent="1" source="Rp-ab2z_M1Jg2SWGDdXT-5" target="Rp-ab2z_M1Jg2SWGDdXT-11" edge="1">
                    <mxGeometry relative="1" as="geometry"/>
                </mxCell>
                <mxCell id="Rp-ab2z_M1Jg2SWGDdXT-5" value="NodeAttestor" style="rounded=1;whiteSpace=wrap;html=1;fillColor=#e1d5e7;strokeColor=#9673a6;" parent="1" vertex="1">
                    <mxGeometry x="450" y="330" width="100" height="30" as="geometry"/>
                </mxCell>
                <mxCell id="Rp-ab2z_M1Jg2SWGDdXT-16" style="edgeStyle=orthogonalEdgeStyle;rounded=0;orthogonalLoop=1;jettySize=auto;html=1;exitX=0.5;exitY=1;exitDx=0;exitDy=0;entryX=0.5;entryY=0;entryDx=0;entryDy=0;" parent="1" source="Rp-ab2z_M1Jg2SWGDdXT-6" target="Rp-ab2z_M1Jg2SWGDdXT-13" edge="1">
                    <mxGeometry relative="1" as="geometry"/>
                </mxCell>
                <mxCell id="Rp-ab2z_M1Jg2SWGDdXT-6" value="NodeResolver" style="rounded=1;whiteSpace=wrap;html=1;fillColor=#e1d5e7;strokeColor=#9673a6;" parent="1" vertex="1">
                    <mxGeometry x="570" y="330" width="100" height="30" as="geometry"/>
                </mxCell>
                <mxCell id="Rp-ab2z_M1Jg2SWGDdXT-40" value="" style="edgeStyle=orthogonalEdgeStyle;rounded=0;orthogonalLoop=1;jettySize=auto;html=1;" parent="1" source="Rp-ab2z_M1Jg2SWGDdXT-8" target="Rp-ab2z_M1Jg2SWGDdXT-23" edge="1">
                    <mxGeometry relative="1" as="geometry"/>
                </mxCell>
                <mxCell id="Rp-ab2z_M1Jg2SWGDdXT-8" value="AWS" style="rounded=1;whiteSpace=wrap;html=1;fillColor=#d5e8d4;strokeColor=#82b366;" parent="1" vertex="1">
                    <mxGeometry x="510" y="420" width="40" height="30" as="geometry"/>
                </mxCell>
                <mxCell id="Rp-ab2z_M1Jg2SWGDdXT-34" style="edgeStyle=orthogonalEdgeStyle;rounded=0;orthogonalLoop=1;jettySize=auto;html=1;exitX=0.5;exitY=1;exitDx=0;exitDy=0;entryX=0.08;entryY=0.625;entryDx=0;entryDy=0;entryPerimeter=0;" parent="1" source="Rp-ab2z_M1Jg2SWGDdXT-11" target="Rp-ab2z_M1Jg2SWGDdXT-24" edge="1">
                    <mxGeometry relative="1" as="geometry">
                        <Array as="points">
                            <mxPoint x="475" y="615"/>
                        </Array>
                    </mxGeometry>
                </mxCell>
                <mxCell id="Rp-ab2z_M1Jg2SWGDdXT-11" value="Azure" style="rounded=1;whiteSpace=wrap;html=1;fillColor=#dae8fc;strokeColor=#6c8ebf;" parent="1" vertex="1">
                    <mxGeometry x="450" y="420" width="50" height="30" as="geometry"/>
                </mxCell>
                <mxCell id="Rp-ab2z_M1Jg2SWGDdXT-54" style="edgeStyle=orthogonalEdgeStyle;rounded=0;orthogonalLoop=1;jettySize=auto;html=1;fontSize=16;entryX=0.96;entryY=0.7;entryDx=0;entryDy=0;entryPerimeter=0;" parent="1" source="Rp-ab2z_M1Jg2SWGDdXT-13" target="Rp-ab2z_M1Jg2SWGDdXT-24" edge="1">
                    <mxGeometry relative="1" as="geometry">
                        <mxPoint x="620" y="620" as="targetPoint"/>
                        <Array as="points">
                            <mxPoint x="620" y="618"/>
                        </Array>
                    </mxGeometry>
                </mxCell>
                <mxCell id="Rp-ab2z_M1Jg2SWGDdXT-13" value="Azure" style="rounded=1;whiteSpace=wrap;html=1;fillColor=#dae8fc;strokeColor=#6c8ebf;" parent="1" vertex="1">
                    <mxGeometry x="595" y="420" width="50" height="30" as="geometry"/>
                </mxCell>
                <mxCell id="Rp-ab2z_M1Jg2SWGDdXT-19" value="memory" style="rounded=1;whiteSpace=wrap;html=1;sketch=0;fillColor=#b1ddf0;strokeColor=#10739e;" parent="1" vertex="1">
                    <mxGeometry x="190" y="420" width="60" height="30" as="geometry"/>
                </mxCell>
                <mxCell id="Rp-ab2z_M1Jg2SWGDdXT-23" value="AWS" style="ellipse;shape=cloud;whiteSpace=wrap;html=1;sketch=0;fillColor=#d5e8d4;strokeColor=#82b366;" parent="1" vertex="1">
                    <mxGeometry x="510" y="530" width="100" height="40" as="geometry"/>
                </mxCell>
                <mxCell id="Rp-ab2z_M1Jg2SWGDdXT-24" value="Azure" style="ellipse;shape=cloud;whiteSpace=wrap;html=1;sketch=0;fillColor=#dae8fc;strokeColor=#6c8ebf;" parent="1" vertex="1">
                    <mxGeometry x="510" y="590" width="100" height="40" as="geometry"/>
                </mxCell>
                <mxCell id="Rp-ab2z_M1Jg2SWGDdXT-30" value="CA" style="ellipse;shape=cloud;whiteSpace=wrap;html=1;sketch=0;fillColor=#b0e3e6;strokeColor=#0e8088;" parent="1" vertex="1">
                    <mxGeometry x="310" y="530" width="100" height="40" as="geometry"/>
                </mxCell>
                <mxCell id="Rp-ab2z_M1Jg2SWGDdXT-32" value="&lt;div&gt;&lt;br&gt;&lt;/div&gt;&lt;div&gt;&lt;br&gt;&lt;/div&gt;&lt;div&gt;SQL&lt;/div&gt;&lt;div&gt;Database&lt;br&gt;&lt;/div&gt;" style="shape=cylinder2;whiteSpace=wrap;html=1;boundedLbl=1;backgroundOutline=1;size=15;sketch=0;fillColor=#b1ddf0;strokeColor=#10739e;" parent="1" vertex="1">
                    <mxGeometry x="60" y="530" width="60" height="80" as="geometry"/>
                </mxCell>
                <mxCell id="Rp-ab2z_M1Jg2SWGDdXT-44" value="&lt;h2&gt;API&lt;/h2&gt;" style="rounded=0;whiteSpace=wrap;html=1;sketch=0;fillColor=#fad7ac;strokeColor=#b46504;" parent="1" vertex="1">
                    <mxGeometry x="10" y="210" width="700" height="40" as="geometry"/>
                </mxCell>
                <mxCell id="Rp-ab2z_M1Jg2SWGDdXT-46" value="Server" style="text;html=1;strokeColor=none;fillColor=none;align=center;verticalAlign=middle;whiteSpace=wrap;rounded=0;sketch=0;fontSize=30;fontStyle=1" parent="1" vertex="1">
                    <mxGeometry x="340" y="270" width="40" height="20" as="geometry"/>
                </mxCell>
                <mxCell id="Rp-ab2z_M1Jg2SWGDdXT-55" value="" style="edgeStyle=orthogonalEdgeStyle;rounded=0;orthogonalLoop=1;jettySize=auto;html=1;fontSize=16;" parent="1" source="Rp-ab2z_M1Jg2SWGDdXT-49" target="Rp-ab2z_M1Jg2SWGDdXT-44" edge="1">
                    <mxGeometry relative="1" as="geometry"/>
                </mxCell>
                <mxCell id="Rp-ab2z_M1Jg2SWGDdXT-49" value="&lt;h6 style=&quot;font-size: 16px&quot;&gt;&lt;font style=&quot;font-size: 16px&quot;&gt;&lt;span style=&quot;font-weight: normal&quot;&gt;API Calls&lt;/span&gt;&lt;/font&gt;&lt;/h6&gt;" style="shape=process;whiteSpace=wrap;html=1;backgroundOutline=1;sketch=0;fontSize=30;fillColor=#f8cecc;strokeColor=#b85450;" parent="1" vertex="1">
                    <mxGeometry x="305" y="100" width="110" height="30" as="geometry"/>
                </mxCell>
                <mxCell id="Rp-ab2z_M1Jg2SWGDdXT-56" value="" style="edgeStyle=orthogonalEdgeStyle;rounded=0;orthogonalLoop=1;jettySize=auto;html=1;fontSize=16;" parent="1" source="Rp-ab2z_M1Jg2SWGDdXT-51" target="Rp-ab2z_M1Jg2SWGDdXT-44" edge="1">
                    <mxGeometry relative="1" as="geometry"/>
                </mxCell>
                <mxCell id="Rp-ab2z_M1Jg2SWGDdXT-51" value="&lt;div&gt;Agents&lt;/div&gt;" style="shape=process;whiteSpace=wrap;html=1;backgroundOutline=1;sketch=0;fontSize=16;fillColor=#f8cecc;strokeColor=#b85450;" parent="1" vertex="1">
                    <mxGeometry x="470" y="100" width="110" height="30" as="geometry"/>
                </mxCell>
                <mxCell id="Rp-ab2z_M1Jg2SWGDdXT-57" value="" style="edgeStyle=orthogonalEdgeStyle;rounded=0;orthogonalLoop=1;jettySize=auto;html=1;fontSize=16;" parent="1" source="Rp-ab2z_M1Jg2SWGDdXT-53" target="Rp-ab2z_M1Jg2SWGDdXT-44" edge="1">
                    <mxGeometry relative="1" as="geometry"/>
                </mxCell>
                <mxCell id="Rp-ab2z_M1Jg2SWGDdXT-53" value="&lt;h6&gt;&lt;font style=&quot;font-size: 16px&quot;&gt;&lt;span style=&quot;font-weight: normal&quot;&gt;CLI Tool&lt;/span&gt;&lt;/font&gt;&lt;/h6&gt;" style="shape=process;whiteSpace=wrap;html=1;backgroundOutline=1;sketch=0;fontSize=30;fillColor=#f8cecc;strokeColor=#b85450;" parent="1" vertex="1">
                    <mxGeometry x="140" y="100" width="110" height="30" as="geometry"/>
                </mxCell>
            </root>
        </mxGraphModel>
    </diagram>
</mxfile>
